<svg xmlns="http://www.w3.org/2000/svg" width="1920" height="1080" viewBox="0 0 1920 1080">
  <path id="Union_1" data-name="Union 1" d="M-6889-4521v-262h-291v-174h-218v-568h410v295h255v206h576v-100h-191v-477h447v290h423v657h-544v133Zm10-10.635h847V-4654h-125v-359.364h-576V-4783h-146ZM-5488.336-4664v-637H-5901v177h-245.665v100H-6022v360Zm-658.328,0H-6032v-349.364h-114.665ZM-6743-4793v-220.364h-136V-4793Zm-427,0h281v-231h146v-196h-245v263h-182Zm171.432-174v-253H-7170v253Zm-388.865,0H-7180v-263h181.432v-285h-388.865ZM-5911-5134.671V-5301h-235.665v166.328Zm-427,0h181V-5311h246v-279.33h-427Z" transform="translate(7398 5601)" fill="#f7f7f7"/>
</svg>
